<?xml version="1.0" encoding="utf-8"?>
<!-- Generator: Adobe Illustrator 28.1.0, SVG Export Plug-In . SVG Version: 6.00 Build 0)  -->
<svg version="1.1" id="Ebene_1" xmlns="http://www.w3.org/2000/svg" xmlns:xlink="http://www.w3.org/1999/xlink" x="0px" y="0px"
	 viewBox="0 0 216.1 215.6" style="enable-background:new 0 0 216.1 215.6;" xml:space="preserve">
<g>
	<path d="M27.1,188.3c54.2,0,107.8,0,161.9,0c0-5.8,0-11.2,0-16.7c0-8-0.1-16,0.1-24c0.2-7.1,5.7-12.5,12.8-12.9
		c6.7-0.4,12.9,4.8,13.9,11.8c0.2,1.5,0.2,3,0.2,4.5c0,16.3,0.1,32.7,0,49c0,10.6-5.1,15.6-15.7,15.6c-61.5,0-123,0-184.5,0
		c-10.9,0-15.8-4.9-15.8-15.9c0-16.5,0.3-33-0.1-49.5c-0.2-9.2,5.9-15.3,13.4-15.5c8.1-0.2,13.7,6.2,13.7,15.7
		C27.2,162.8,27.1,175.3,27.1,188.3z"/>
	<path d="M94.5,113.9c0-1.8,0-3.5,0-5.3c0-30.5,0-61,0.1-91.5c0-3,0.2-6.1,1.1-8.8c2-5.8,8.3-9.2,14.4-8.2c6.5,1,11.2,5.9,11.3,12.6
		c0.2,19.7,0.1,39.3,0.1,59c0,12.7,0,25.3,0,38c0,1.4,0,2.9,0,5.7c2.2-2.1,3.5-3.2,4.8-4.4c8.4-8.4,16.7-16.8,25.1-25.1
		c6.5-6.5,14.7-6.8,20.4-1c5.4,5.5,5.1,13.7-1.2,20c-17.3,17.4-34.6,34.7-52,52c-6.6,6.5-14.1,6.7-20.3,0.5
		c-17.8-17.6-35.4-35.3-53.1-53c-4.3-4.3-5.6-9.5-3.5-15.1c1.8-4.9,5.7-7.7,11-8.3c4.6-0.6,8.4,1.2,11.7,4.5c8,8,16,16,24,24.1
		c1.6,1.7,3,3.6,4.5,5.4C93.3,114.5,93.9,114.2,94.5,113.9z"/>
</g>
</svg>
